<svg width="108" height="40" viewBox="0 0 108 40" fill="none" xmlns="http://www.w3.org/2000/svg">
<path d="M43.4842 5.48076L43.4778 33.9501C43.4778 33.9662 43.4714 33.9817 43.4601 33.9931C43.4488 34.0044 43.4335 34.0108 43.4176 34.0108H36.853C36.8228 34.0108 36.7938 33.9987 36.7724 33.9772C36.7511 33.9556 36.7391 33.9264 36.7391 33.8959L36.7326 5.46992C36.7326 5.46066 36.7308 5.4515 36.7273 5.44295C36.7238 5.4344 36.7186 5.42664 36.7122 5.42009C36.7057 5.41355 36.698 5.40836 36.6895 5.40482C36.681 5.40128 36.6719 5.39946 36.6627 5.39946L29.0394 5.39187C29.0129 5.39187 28.9875 5.40238 28.9687 5.42108C28.95 5.43978 28.9394 5.46515 28.9394 5.4916C28.9394 11.0172 28.9401 16.4947 28.9416 21.9241C28.9416 23.3456 28.7764 24.7407 28.446 26.1095C28.2583 26.8864 28.0347 27.5715 27.7753 28.1648C26.8903 30.1911 25.4667 31.7492 23.5046 32.839C22.7529 33.256 21.9109 33.5931 20.9785 33.8504C19.3834 34.2905 17.6119 34.5337 15.6641 34.5799C14.1306 34.6161 12.6078 34.5077 11.0957 34.2547C9.97993 34.0683 8.90788 33.7518 7.87953 33.3051C7.18155 33.0023 6.55415 32.6565 5.99734 32.2677C4.21512 31.0233 2.97323 29.3247 2.27166 27.1718C1.84814 25.8717 1.59876 24.538 1.52351 23.1707C1.48123 22.4032 1.46045 21.6354 1.46117 20.8672C1.47049 13.9743 1.47514 7.05691 1.47514 0.114904C1.47514 0.098804 1.48149 0.0833635 1.49277 0.0719792C1.50406 0.0605949 1.51937 0.0541992 1.53534 0.0541992H8.14934C8.16815 0.0541992 8.1862 0.0617369 8.19951 0.0751542C8.21281 0.0885714 8.22028 0.106769 8.22028 0.125744C8.22028 6.59078 8.22028 13.0439 8.22028 19.4851C8.22028 19.9136 8.23211 20.3418 8.25576 20.7696C8.28729 21.3225 8.31703 21.7489 8.34498 22.0488C8.43957 23.0367 8.65061 23.9953 8.97811 24.9247C9.24684 25.6864 9.57361 26.3259 9.95843 26.8434C11.0678 28.3342 12.6472 29.1245 14.6967 29.2141C15.8132 29.2632 16.8229 29.1378 17.7258 28.8379C18.9713 28.4238 19.9434 27.6752 20.6421 26.5919C21.1072 25.8706 21.4526 25.0641 21.6783 24.1724C21.9771 22.9901 22.142 21.789 22.1728 20.5691C22.1971 19.621 22.2086 18.6724 22.2072 17.7236C22.1986 11.888 22.1943 6.02963 22.1943 0.148508C22.1943 0.136123 22.1967 0.12386 22.2014 0.112418C22.2061 0.100976 22.213 0.0905791 22.2217 0.0818217C22.2304 0.0730643 22.2407 0.0661175 22.252 0.0613781C22.2634 0.0566386 22.2755 0.0541992 22.2878 0.0541992H70.2638C70.2797 0.0541992 70.295 0.0605949 70.3063 0.0719792C70.3176 0.0833635 70.324 0.098804 70.324 0.114904V5.33875C70.324 5.35313 70.3183 5.36691 70.3082 5.37708C70.2981 5.38724 70.2845 5.39295 70.2702 5.39295C63.8293 5.39295 57.3887 5.39837 50.9485 5.40921C48.6646 5.41355 46.3804 5.40957 44.0958 5.39729C43.9088 5.39657 43.7228 5.40488 43.5379 5.42222C43.5233 5.42332 43.5096 5.42997 43.4997 5.44083C43.4897 5.45169 43.4842 5.46596 43.4842 5.48076Z" fill="#F5F5FF"/>
<path d="M47.0981 34.0531C46.4202 34.0394 45.7519 34.0343 45.0934 34.038C45.0711 34.038 45.0498 34.029 45.0341 34.0132C45.0184 33.9973 45.0095 33.9758 45.0095 33.9534L45.016 6.89107C45.016 6.87641 45.0216 6.86235 45.0317 6.85198C45.0418 6.84161 45.0555 6.83579 45.0697 6.83579L70.2283 6.82928C70.2373 6.82929 70.2462 6.83106 70.2545 6.83451C70.2627 6.83795 70.2703 6.843 70.2766 6.84936C70.2829 6.85571 70.2878 6.86325 70.2912 6.87153C70.2945 6.87981 70.2962 6.88866 70.296 6.89758L70.2777 12.1214C70.2777 12.1356 70.272 12.1492 70.2617 12.1594C70.2515 12.1695 70.2375 12.1753 70.2229 12.1756L51.846 12.1951C51.8235 12.1951 51.8019 12.204 51.786 12.2199C51.7701 12.2358 51.7611 12.2573 51.7611 12.2797L51.7547 33.9816C51.7547 33.9965 51.7488 34.0108 51.7384 34.0215C51.728 34.0322 51.7138 34.0385 51.6988 34.039C50.1752 34.0795 48.6417 34.0842 47.0981 34.0531Z" fill="#F6C500"/>
<path d="M77.2637 26.3762L77.2572 33.8689C77.2572 33.885 77.2509 33.9004 77.2396 33.9118C77.2283 33.9232 77.213 33.9296 77.197 33.9296H73.2875C73.276 33.9296 73.2645 33.9273 73.2538 33.9228C73.2431 33.9183 73.2334 33.9118 73.2252 33.9035C73.217 33.8953 73.2105 33.8855 73.2061 33.8747C73.2017 33.8639 73.1994 33.8524 73.1994 33.8407L73.2059 13.7507C73.2059 13.727 73.2152 13.7043 73.2319 13.6875C73.2486 13.6706 73.2713 13.661 73.2951 13.6607C76.5048 13.6318 79.6411 13.6571 82.7039 13.7366C82.7899 13.7388 82.8852 13.7475 82.9898 13.7626C83.1109 13.7807 83.2066 13.7912 83.2768 13.7941C84.1446 13.8251 84.9426 14.0376 85.6707 14.4315C86.297 14.7704 86.8413 15.2325 87.3035 15.8179C87.9878 16.683 88.3931 17.6976 88.5192 18.8618C88.5887 19.5072 88.5912 20.1493 88.5267 20.7881C88.4594 21.4616 88.3078 22.0792 88.072 22.6407C87.4694 24.0737 86.4546 25.0855 85.0279 25.6759C84.5291 25.8819 83.8856 26.0304 83.0973 26.1214C82.0424 26.2428 81.0094 26.2981 79.9983 26.2873C78.9742 26.2765 78.081 26.2869 77.3185 26.3187C77.3038 26.3193 77.2898 26.3256 77.2796 26.3363C77.2694 26.347 77.2637 26.3613 77.2637 26.3762ZM83.7111 21.7941C84.1633 21.2882 84.3872 20.6902 84.3829 20C84.3772 18.9102 83.9558 18.1142 83.1188 17.612C82.8386 17.4436 82.5004 17.3193 82.1041 17.2391C81.7479 17.1668 81.3864 17.1274 81.0195 17.1209C79.7812 17.0999 78.5565 17.0909 77.3454 17.0938C77.3338 17.0938 77.3223 17.0961 77.3117 17.1006C77.301 17.105 77.2912 17.1116 77.2831 17.1198C77.2749 17.1281 77.2684 17.1379 77.2639 17.1487C77.2595 17.1595 77.2572 17.171 77.2572 17.1827V22.7567C77.2572 22.7683 77.2595 22.7799 77.2639 22.7907C77.2684 22.8015 77.2749 22.8113 77.2831 22.8195C77.2912 22.8278 77.301 22.8343 77.3117 22.8388C77.3223 22.8433 77.3338 22.8456 77.3454 22.8456C78.6038 22.8441 79.8195 22.8228 80.9926 22.7816C81.3065 22.7708 81.6827 22.7288 82.1213 22.6559C82.7633 22.5489 83.2933 22.2616 83.7111 21.7941Z" fill="#F5F5FF"/>
<path d="M93.8444 25.536L93.8379 33.8569C93.8379 33.8762 93.8304 33.8947 93.8171 33.9083C93.8038 33.9219 93.7858 33.9295 93.767 33.9295H89.8661C89.8574 33.9295 89.8488 33.9278 89.8407 33.9244C89.8327 33.921 89.8254 33.916 89.8193 33.9098C89.8132 33.9035 89.8084 33.8961 89.8052 33.888C89.802 33.8798 89.8004 33.8711 89.8005 33.8623C89.807 32.7617 89.8095 31.6719 89.808 30.593C89.808 30.5901 89.8016 30.0867 89.7887 29.0829C89.7801 28.3884 89.7862 27.5198 89.807 26.477C89.8335 25.1516 89.8267 20.9084 89.7865 13.7474C89.7866 13.7318 89.792 13.7167 89.8019 13.7049C89.8118 13.6932 89.8254 13.6856 89.8403 13.6835C89.9549 13.6676 90.1319 13.6593 90.3713 13.6585C93.2471 13.6455 96.1225 13.6466 98.9976 13.6618C100.322 13.6683 101.531 13.8117 102.625 14.0921C103.107 14.2157 103.565 14.4296 103.998 14.7339C104.394 15.0114 104.749 15.3619 105.063 15.7854C105.935 16.9604 106.305 18.3382 106.173 19.9187C106.044 21.4659 105.436 22.6905 104.351 23.5924C103.917 23.953 103.398 24.2529 102.794 24.4921C102.224 24.7176 101.639 24.8708 101.039 24.9518C100.928 24.9669 100.921 25.0031 101.018 25.0602C102.067 25.6723 102.959 26.4629 103.694 27.432C104.042 27.8923 104.507 28.5875 105.089 29.5176C105.977 30.9362 106.878 32.3765 107.793 33.8385C107.827 33.8949 107.812 33.923 107.746 33.923L103.08 33.9295C103.051 33.9296 103.022 33.9222 102.996 33.908C102.97 33.8938 102.948 33.8732 102.932 33.8482C101.463 31.5783 99.9528 29.3402 98.3999 27.1339C98.0208 26.5962 97.5826 26.1857 97.0853 25.9024C96.7692 25.7225 96.3615 25.6029 95.862 25.5436C95.2106 25.467 94.556 25.4454 93.8981 25.4786C93.8837 25.4792 93.87 25.4855 93.86 25.4962C93.8499 25.5069 93.8443 25.5212 93.8444 25.536ZM101.515 21.2141C101.808 20.8434 101.974 20.4206 102.012 19.9458C102.112 18.6876 101.671 17.836 100.687 17.3908C100.376 17.2491 99.9542 17.1653 99.4232 17.1393C98.8664 17.1111 98.2139 17.0981 97.4658 17.1003C96.3034 17.1039 95.1128 17.1014 93.8938 17.0927C93.879 17.0927 93.8648 17.0986 93.8543 17.1092C93.8438 17.1198 93.8379 17.1341 93.8379 17.1491V22.1615C93.8379 22.1776 93.8443 22.1931 93.8555 22.2044C93.8668 22.2158 93.8822 22.2222 93.8981 22.2222C95.13 22.2222 96.3371 22.2219 97.5195 22.2211C98.0219 22.2204 98.5232 22.2031 99.0233 22.1691C99.7228 22.1221 100.169 22.0701 100.362 22.013C100.815 21.8793 101.2 21.613 101.515 21.2141Z" fill="#F5F5FF"/>
<path d="M59.6081 19.1935L59.6016 33.9643C59.6016 33.9838 59.594 34.0026 59.5805 34.0164C59.567 34.0302 59.5487 34.038 59.5296 34.038L53.3209 34.0315C53.3063 34.0315 53.2924 34.0258 53.2821 34.0156C53.2718 34.0054 53.266 33.9916 53.266 33.9773L53.2596 13.8548C53.2596 13.8387 53.2659 13.8232 53.2772 13.8118C53.2885 13.8005 53.3038 13.7941 53.3198 13.7941H70.2369C70.2529 13.7941 70.2682 13.8005 70.2795 13.8118C70.2908 13.8232 70.2971 13.8387 70.2971 13.8548V19.0786C70.2971 19.093 70.2915 19.1068 70.2814 19.1169C70.2713 19.1271 70.2576 19.1328 70.2434 19.1328L59.6629 19.1393C59.6557 19.1393 59.6486 19.1407 59.6419 19.1434C59.6353 19.1462 59.6292 19.1502 59.6241 19.1552C59.619 19.1602 59.615 19.1662 59.6122 19.1728C59.6095 19.1794 59.6081 19.1864 59.6081 19.1935Z" fill="#F5F5FF"/>
</svg>
